<svg xmlns="http://www.w3.org/2000/svg" width="34.143" height="34.142" viewBox="0 0 34.143 34.142">
  <path id="iconmonstr-twitter-2" d="M0,0V34.142H34.142V0ZM26.833,13.141A13.281,13.281,0,0,1,6.4,24.934,9.4,9.4,0,0,0,13.315,23a4.674,4.674,0,0,1-4.362-3.244,4.7,4.7,0,0,0,2.108-.08A4.675,4.675,0,0,1,7.316,15.04a4.646,4.646,0,0,0,2.114.585A4.678,4.678,0,0,1,7.985,9.389a13.259,13.259,0,0,0,9.625,4.88,4.673,4.673,0,0,1,7.958-4.258,9.344,9.344,0,0,0,2.966-1.132,4.683,4.683,0,0,1-2.053,2.583,9.358,9.358,0,0,0,2.682-.735,9.541,9.541,0,0,1-2.33,2.414Z" fill="#fff"/>
</svg>
