<svg xmlns="http://www.w3.org/2000/svg" width="33.959" height="33.959" viewBox="0 0 33.959 33.959">
  <path id="iconmonstr-whatsapp-2" d="M17.03,7.554A9.341,9.341,0,0,0,9.349,22.192l-.942,3.441,3.529-.925a9.33,9.33,0,1,0,5.1-17.153Zm5.484,13.333a2.888,2.888,0,0,1-1.892,1.333,3.858,3.858,0,0,1-1.766-.11,15.9,15.9,0,0,1-1.6-.59,12.5,12.5,0,0,1-4.788-4.232,5.45,5.45,0,0,1-1.145-2.9,3.151,3.151,0,0,1,.981-2.339,1.026,1.026,0,0,1,.747-.354l.538.01c.173.008.4-.065.631.481.233.562.794,1.941.865,2.081a.514.514,0,0,1,.023.491,1.9,1.9,0,0,1-.28.467l-.42.491c-.14.14-.286.291-.123.572a8.463,8.463,0,0,0,1.559,1.941A7.651,7.651,0,0,0,18.1,19.621c.28.14.444.117.607-.071s.7-.818.887-1.1.374-.233.631-.14,1.636.771,1.916.913.467.211.538.327a2.367,2.367,0,0,1-.164,1.337ZM0,0V33.959H33.959V0H0ZM17.026,28.1a11.212,11.212,0,0,1-5.365-1.365L5.714,28.3l1.592-5.813A11.219,11.219,0,1,1,17.026,28.1Z" fill="#fff"/>
</svg>
